<svg width="21" height="20" viewBox="0 0 21 20" fill="none" xmlns="http://www.w3.org/2000/svg">
<path d="M14.9192 0H5.74682C2.76159 0 0.333008 2.42858 0.333008 5.41381V14.5863C0.333008 17.5714 2.76159 20 5.74682 20H14.9193C17.9044 20 20.333 17.5714 20.333 14.5863V5.41381C20.333 2.42858 17.9044 0 14.9192 0V0ZM10.333 15.4686C7.31755 15.4686 4.8644 13.0154 4.8644 9.99998C4.8644 6.98454 7.31755 4.53139 10.333 4.53139C13.3484 4.53139 15.8016 6.98454 15.8016 9.99998C15.8016 13.0154 13.3484 15.4686 10.333 15.4686ZM15.9323 5.82106C15.0412 5.82106 14.3164 5.09627 14.3164 4.20516C14.3164 3.31405 15.0412 2.58911 15.9323 2.58911C16.8235 2.58911 17.5484 3.31405 17.5484 4.20516C17.5484 5.09627 16.8235 5.82106 15.9323 5.82106Z" fill="#D2DAE5"/>
<path d="M10.3332 5.7041C7.96444 5.7041 6.03711 7.63128 6.03711 10.0002C6.03711 12.369 7.96444 14.2963 10.3332 14.2963C12.7021 14.2963 14.6293 12.369 14.6293 10.0002C14.6293 7.63128 12.7021 5.7041 10.3332 5.7041Z" fill="#D2DAE5"/>
<path d="M15.9327 3.76172C15.6882 3.76172 15.4893 3.96069 15.4893 4.20514C15.4893 4.44958 15.6882 4.64856 15.9327 4.64856C16.1773 4.64856 16.3762 4.44974 16.3762 4.20514C16.3762 3.96054 16.1773 3.76172 15.9327 3.76172Z" fill="#D2DAE5"/>
</svg>
