<svg width="17" height="16" viewBox="0 0 17 16" fill="none" xmlns="http://www.w3.org/2000/svg">
<path d="M11.7639 11.0671L11.2484 11.8403C11.1455 11.9947 11.0094 12.1264 10.8301 12.1738C10.2426 12.329 8.68307 12.3991 6.30867 10.0247C3.93428 7.65029 4.00436 6.0907 4.15958 5.50326C4.20697 5.32393 4.33866 5.18784 4.493 5.08495L5.26625 4.56945C5.84195 4.18565 5.99752 3.40782 5.61372 2.83212L4.15331 0.641504C3.81831 0.139007 3.1725 -0.0529745 2.6174 0.184924L1.95861 0.467265C1.45815 0.681747 1.04991 1.06668 0.80641 1.55368C0.602974 1.96055 0.445296 2.38901 0.423932 2.84341C0.356606 4.27539 0.670603 7.80336 4.6003 11.7331C8.52999 15.6628 12.0579 15.9767 13.4899 15.9094C13.9443 15.888 14.3728 15.7304 14.7797 15.5269C15.2667 15.2834 15.6516 14.8752 15.8661 14.3747L16.1484 13.7159C16.3863 13.1608 16.1943 12.515 15.6918 12.18L13.5012 10.7196C12.9255 10.3358 12.1477 10.4914 11.7639 11.0671Z" fill="#D2DAE5"/>
</svg>
