<svg width="21" height="18" viewBox="0 0 21 18" fill="none" xmlns="http://www.w3.org/2000/svg">
<path d="M20.333 2.79875C19.5893 3.125 18.7968 3.34125 17.9705 3.44625C18.8205 2.93875 19.4693 2.14125 19.7743 1.18C18.9818 1.6525 18.1068 1.98625 17.1743 2.1725C16.4218 1.37125 15.3493 0.875 14.1793 0.875C11.9093 0.875 10.0818 2.7175 10.0818 4.97625C10.0818 5.30125 10.1093 5.61375 10.1768 5.91125C6.76801 5.745 3.75176 4.11125 1.72551 1.6225C1.37176 2.23625 1.16426 2.93875 1.16426 3.695C1.16426 5.115 1.89551 6.37375 2.98551 7.1025C2.32676 7.09 1.68051 6.89875 1.13301 6.5975C1.13301 6.61 1.13301 6.62625 1.13301 6.6425C1.13301 8.635 2.55426 10.29 4.41801 10.6712C4.08426 10.7625 3.72051 10.8062 3.34301 10.8062C3.08051 10.8062 2.81551 10.7913 2.56676 10.7362C3.09801 12.36 4.60551 13.5538 6.39801 13.5925C5.00301 14.6838 3.23176 15.3412 1.31426 15.3412C0.978008 15.3412 0.655508 15.3263 0.333008 15.285C2.14926 16.4563 4.30176 17.125 6.62301 17.125C14.168 17.125 18.293 10.875 18.293 5.4575C18.293 5.27625 18.2868 5.10125 18.278 4.9275C19.0918 4.35 19.7755 3.62875 20.333 2.79875Z" fill="#D2DAE5"/>
</svg>
